
<svg viewBox="0 0 640 640" xmlns="http://www.w3.org/2000/svg">
  <defs>
	<ellipse id="main" cx="320" cy="300" rx="150" ry="300" /> <!-->椭圆主图<-->
   <clipPath id="clipBottom">
		<rect x="0" y="480" width="640" height="120"/> <!-->底部区域<-->
    </clipPath>
	<clipPath id="clipCenter">
		<rect x="0" y="60" width="640" height="420"/> <!-->中部区域<-->
    </clipPath>
	<clipPath id="clipTop">
		<rect x="0" y="0" width="640" height="60"/> <!-->顶部区域<-->
    </clipPath>
	<filter id="shadow" x="0" y="0" width="200%" height="200%">
      <feOffset result="offOut" in="SourceGraphic" dx="10" dy="20" />
      <feGaussianBlur result="blurOut" in="offOut" stdDeviation="20" />
      <feBlend in="SourceGraphic" in2="blurOut" mode="normal" />
    </filter>
  </defs>
	<g filter="url(#shadow)">
		<animateTransform attributeName="transform" type="translate" from="0,640" to="0,0" dur="1s" repeatCount="1"/>
		<g transform="translate(0,40)"> <!-->底部区域<-->
		<use href="#main" fill="green" clip-path="url(#clipBottom)"  />
		<ellipse cx="320" cy="480" rx="120" ry="16" fill="lightgreen" />  <!-->底部剖面<-->
		
		<line x1="320" y1="540"  x2="540" y2="540" style="stroke:#ddd;stroke-width:2"></line>   
		<text x="320" y="540" dy="-5" style="fill:#ddd;text-anchor:start;font-size:16;" >10%</text>
		<text x="540" y="540" dx="0" dy="-5" style="fill:#ddd;text-anchor:middle;font-size:16;">低收入群体</text>	
		</g>
		
		<g transform="translate(0,20)"> <!-->中部区域<-->
		<use href="#main" fill="orange" clip-path="url(#clipCenter)" /> <!-->中部区域<-->
		<ellipse cx="320" cy="480" rx="120" ry="16" fill="orange" /> <!-->中下剖面<-->  
		<ellipse cx="320" cy="60" rx="90" ry="16" fill="yellow" /> <!-->中上剖面<-->
		
		<line x1="320" y1="320"  x2="100" y2="320" style="stroke:#ddd;stroke-width:2"></line>
		<text x="320" y="320" dy="-5" style="fill:#ddd;text-anchor:end;font-size:16;">80%</text>
		<text x="100" y="320" dx="0" dy="-5" style="fill:#ddd;text-anchor:middle;font-size:16;">中等收入群体</text>
		</g>
		
		<g> <!-->顶部区域<-->
		<use href="#main" fill="blue" clip-path="url(#clipTop)"/> 
		<ellipse cx="320" cy="60" rx="88" ry="16" fill="blue" /> <!-->顶部椭圆<-->
		
		<line x1="320" y1="30"  x2="540" y2="30" style="stroke:#ddd;stroke-width:2" ></line>
		<text x="320" y="30" dy="-5" style="fill:#ddd;text-anchor:start;font-size:16;">5%</text>
		<text x="540" y="30" dx="0" dy="-5" style="fill:#ddd;text-anchor:middle;font-size:16;">高收入群体</text>
		</g> 
	</g>	
</svg>