
<svg width="400" height="400" viewBox="0 0 400 400" xmlns="http://www.w3.org/2000/svg">
  <defs>
   <clipPath id="clipBottom">
		<rect x="100" y="320" width="200" height="80"/> <!-->底部区域<-->
    </clipPath>
    <clipPath id="clipCenterTopBotom">
		<rect x="100" y="100" width="200" height="16"/> <!-->中间顶部区域<-->		
    </clipPath>
	<clipPath id="clipCenter">
		<rect x="100" y="60" width="200" height="244"/> <!-->中部区域<-->
    </clipPath>
	<clipPath id="clipTop">
		<rect x="100" y="0" width="200" height="46"/> <!-->顶部区域<-->
    </clipPath>
  </defs>
	<ellipse cx="200" cy="200" rx="100" ry="200" fill="green" clip-path="url(#clipBottom)"/> <!-->底部区域<-->
	<ellipse cx="200" cy="320" rx="80" ry="16" fill="lightgreen" /> <!-->底部剖面<-->
  
	
	<ellipse cx="200" cy="200" rx="100" ry="200" fill="yellow" clip-path="url(#clipCenterTopBotom)"/> <!-->中部区域<-->
	<ellipse cx="200" cy="304" rx="86" ry="16" fill="darkorange" /> <!-->中部靠底区域<-->
	<ellipse cx="200" cy="200" rx="100" ry="200" fill="darkorange" clip-path="url(#clipCenter)"/> <!-->中部区域<-->
	<ellipse cx="200" cy="62" rx="72" ry="16" fill="orange" /> <!-->顶部剖面<-->  
	<ellipse cx="200" cy="200" rx="100" ry="200" fill="blue" clip-path="url(#clipTop)"/> <!-->顶部区域<-->
	<ellipse cx="200" cy="46" rx="63" ry="16" fill="blue" />
	
	<line x1="200" y1="23"  x2="350" y2="23" style="stroke:#ddd;stroke-width:2"></line>
    <line x1="60" y1="200"  x2="200" y2="200" style="stroke:#ddd;stroke-width:2"></line>
	<line x1="200" y1="360"  x2="350" y2="360" style="stroke:#ddd;stroke-width:2"></line>    
    <text x="350" y="23" style="fill:#ddd;text-anchor:start;font-size:16;">10%</text>
	<text x="60" y="200" style="fill:#ddd;text-anchor:end;font-size:16;">80%</text>
	<text x="350" y="360" style="fill:#ddd;text-anchor:start;font-size:16;">10%</text>
	
	<text x="200" y="23" dx="0" dy="-5" style="fill:#ddd;text-anchor:middle;font-size:16;">高收入群体</text>
	<text x="200" y="200" dx="0" dy="-5" style="fill:#ddd;text-anchor:middle;font-size:16;">中等收入群体</text>
	<text x="200" y="360" dx="0" dy="-5" style="fill:#ddd;text-anchor:middle;font-size:16;">低收入群体</text>	
</svg>